<svg xmlns="http://www.w3.org/2000/svg" width="20" height="20" viewBox="0 0 20 20">
  <path id="bx-like" d="M20,8.316H14.388l1.123-3.544a2.205,2.205,0,0,0-.275-1.9A1.979,1.979,0,0,0,13.612,2H12a.984.984,0,0,0-.769.379l-4.7,5.937H4a2.057,2.057,0,0,0-2,2.105v9.474A2.057,2.057,0,0,0,4,22H17.307a2.016,2.016,0,0,0,1.873-1.366L21.937,12.9A1.1,1.1,0,0,0,22,12.526V10.421A2.057,2.057,0,0,0,20,8.316ZM4,10.421H6v9.474H4Zm16,1.915-2.693,7.559H8V9.749l4.468-5.644h1.146L12.052,9.035a1.094,1.094,0,0,0,.137.948.983.983,0,0,0,.811.438h7Z" transform="translate(-2 -2)" fill="#fff"/>
</svg>
