<svg xmlns="http://www.w3.org/2000/svg" width="25" height="20" viewBox="0 0 25 20"><path d="M12.5,68.167a4.087,4.087,0,0,0-1.356.26,3.341,3.341,0,0,1,.314,1.406A2.707,2.707,0,0,1,9.028,72.75a2.1,2.1,0,0,1-1.172-.377,6.457,6.457,0,0,0,1.911,6.406,4.209,4.209,0,0,0,5.669-.15,6.532,6.532,0,0,0,1.674-6.5,5.008,5.008,0,0,0-4.61-3.962ZM24.85,73.24C22.5,67.729,17.836,64,12.5,64S2.5,67.731.152,73.24a1.989,1.989,0,0,0,0,1.52C2.505,80.271,7.165,84,12.5,84s10-3.731,12.349-9.24a1.989,1.989,0,0,0,0-1.52ZM12.5,81.5c-4.282,0-8.207-2.865-10.327-7.5,2.12-4.635,6.045-7.5,10.327-7.5s8.207,2.865,10.327,7.5C20.708,78.635,16.783,81.5,12.5,81.5Z" transform="translate(-0.001 -64)" fill="#fff"/></svg>